<svg width="29.914062" height="29.453125" viewBox="0 0 29.9141 29.4531" fill="none" xmlns="http://www.w3.org/2000/svg" xmlns:xlink="http://www.w3.org/1999/xlink">
	<desc>
			Created with Pixso.
	</desc>
	<defs/>
	<path id="Vector" d="M25.78 0.16C25.45 0.23 24.82 0.53 23.98 1C22.31 1.93 20.95 3.02 19.7 4.42C19 5.2 18.47 5.91 18 6.71C17.88 6.91 17.78 6.9 17.09 6.64C15.49 6.04 14.37 5.82 13.21 5.89C12.37 5.93 11.77 6.1 11.15 6.47C10.36 6.94 10.38 7.49 11.19 8.03C11.46 8.21 11.67 8.47 11.83 8.83C12.14 9.48 12.25 10.13 12.29 11.48C12.31 11.96 12.31 11.97 12.4 12.14C12.57 12.43 12.84 12.47 13.23 12.26C13.41 12.16 13.69 11.89 15.31 10.26C16.33 9.23 17.22 8.35 17.27 8.32C17.51 8.17 17.53 8.29 17.32 8.69C16.68 9.92 16.3 11.49 16.26 13.16C16.24 13.76 16.26 14.52 16.32 15L16.36 15.44L16.1 15.85C15.68 16.47 15.23 17.26 14.48 18.62C13.37 20.65 12.89 21.44 12.16 22.44C11.56 23.26 11.1 23.67 10.41 24C9.84 24.28 9.28 24.43 7.98 24.68C6.2 25.02 5.21 25.28 4.06 25.71C2.87 26.15 1.78 26.78 1.52 27.18C1.34 27.46 1.41 27.67 1.73 27.85C2.05 28.03 2.87 28.28 3.71 28.44C6.01 28.89 8.2 29.05 10.52 28.95C12.63 28.86 13.46 28.69 14.41 28.16C15.6 27.49 16.39 26.27 16.66 24.71C16.72 24.34 16.72 24.33 16.66 23C16.59 21.8 16.59 21.6 16.63 21.14C16.86 18.22 17.81 15.99 19.51 14.39C20.07 13.86 21.25 13.06 22 12.7C22.3 12.55 22.66 12.43 22.94 12.37C23.53 12.26 23.94 12.43 24.19 12.88C24.35 13.17 24.42 13.51 24.46 14.09C24.56 15.8 24.53 17.4 24.31 21.6C24.22 23.5 24.06 26.42 24.03 26.66L24.03 26.8L24.28 26.78L24.54 26.77L24.63 25.42C24.72 24.12 24.85 22.11 25.02 19.55C25.14 17.76 25.28 16.66 25.52 15.39C25.95 13.16 26.65 11.22 27.51 9.84C27.79 9.41 28.22 8.85 28.48 8.6C28.69 8.41 28.82 8.2 28.82 8.08C28.8 7.87 28.63 7.63 28.4 7.51C27.89 7.25 26.82 7.33 25.93 7.7C25.24 7.99 24.18 8.56 23.3 9.14C23.03 9.3 22.81 9.44 22.8 9.44C22.78 9.45 22.64 9.35 22.48 9.25C22.16 9.01 21.35 8.53 20.92 8.32C20.52 8.12 19.67 7.77 19.25 7.63C18.95 7.53 18.87 7.48 18.71 7.35C18.52 7.18 18.47 7.08 18.57 7.02C18.6 7 18.74 6.97 18.88 6.94C19.54 6.82 20.54 6.56 21.37 6.29C23.41 5.64 25.09 4.83 26.43 3.83C26.87 3.51 27.08 3.3 27.14 3.15C27.2 2.98 27.17 2.7 27.03 2.27C26.95 2.05 26.79 1.52 26.67 1.1C26.54 0.67 26.42 0.3 26.41 0.27C26.32 0.13 26.08 0.09 25.78 0.16ZM25.07 0.91C25.17 1.02 25.19 1.1 25.12 1.23C24.76 1.89 20.56 5.32 19.04 6.18C18.71 6.37 18.59 6.41 18.55 6.37C18.53 6.33 19 5.73 19.67 4.97C21.42 2.97 23.1 1.58 24.52 0.98C24.87 0.83 24.98 0.82 25.07 0.91ZM18.01 7.04C18.06 7.07 18.14 7.14 18.18 7.2C18.28 7.33 18.29 7.62 18.19 7.76C18 8.05 17.65 8.09 17.41 7.87C17.15 7.64 17.18 7.27 17.47 7.05C17.55 6.99 17.6 6.98 17.75 6.98C17.86 6.98 17.96 7 18.01 7.04ZM28.05 7.56C28.73 7.66 28.69 8.01 27.96 8.56C27.32 9.05 26.13 9.69 24.93 10.21C24.78 10.27 24.51 10.4 24.33 10.48L24.01 10.64L23.86 10.46C23.78 10.36 23.57 10.14 23.38 9.97C23.2 9.8 23.07 9.66 23.08 9.64C23.13 9.58 24.14 8.93 24.59 8.66C25.16 8.32 25.46 8.17 25.94 7.97C26.75 7.63 27.52 7.48 28.05 7.56ZM16.82 8.28C16.82 8.33 16.6 8.59 15.91 9.32C14.31 11.03 13.55 11.8 13.26 11.99C12.96 12.19 12.81 12.1 12.79 11.73C12.78 11.54 12.79 11.5 12.88 11.35C13.26 10.71 14.3 9.78 15.8 8.77C16.69 8.16 16.81 8.1 16.82 8.28ZM18.12 8.28C18.49 8.64 19.06 10.29 19.26 11.59C19.29 11.78 19.32 12 19.33 12.06C19.35 12.17 19.34 12.18 19.1 12.41C18.96 12.54 18.85 12.64 18.84 12.63C18.83 12.62 18.77 12.52 18.69 12.41C18.17 11.61 17.81 10.2 17.8 8.84C17.78 8.3 17.81 8.21 17.95 8.2C18 8.19 18.07 8.23 18.12 8.28ZM23.37 10.97C23.34 11 23.16 11.1 23.16 11.08C23.16 11.06 23.32 10.97 23.35 10.96C23.37 10.96 23.38 10.97 23.37 10.97ZM23.07 11.14C23.07 11.15 23.05 11.17 23.03 11.18C23 11.19 22.99 11.19 23 11.17C23.01 11.14 23.07 11.12 23.07 11.14ZM22.84 11.28C22.77 11.33 22.7 11.37 22.69 11.37C22.66 11.37 22.91 11.2 22.94 11.2C22.96 11.2 22.91 11.24 22.84 11.28ZM19.39 12.64C19.4 12.69 19.42 13 19.43 13.33L19.45 13.91L19.01 14.42C18.25 15.29 17.89 15.81 17.26 16.95C16.8 17.79 16.54 18.37 16.4 18.87C16.21 19.51 16.1 20.29 16.03 21.24C15.97 22.29 15.68 23 15.03 23.73C14.6 24.2 14.2 24.5 13.37 24.96C12.66 25.35 12.46 25.43 11.93 25.53C10.56 25.8 8.22 25.83 8 25.59C7.95 25.55 7.96 25.35 8.01 25.28C8.08 25.19 8.27 25.1 9.01 24.83C10.15 24.41 10.79 24.08 11.46 23.58C12.14 23.08 12.49 22.57 13.88 20.04C15.5 17.1 16.17 16.05 17.44 14.54C17.94 13.95 19.27 12.55 19.35 12.55C19.36 12.54 19.38 12.59 19.39 12.64Z" fill="#FFFFFF" fill-opacity="1.000000" fill-rule="nonzero"/>
	<path id="Vector" d="M17.58 7.21C17.33 7.36 17.39 7.75 17.67 7.81C17.97 7.87 18.17 7.58 18.03 7.31C17.96 7.17 17.72 7.12 17.58 7.21Z" fill="#FFFFFF" fill-opacity="1.000000" fill-rule="nonzero"/>
</svg>
