<svg width="25.847656" height="23.390625" viewBox="0 0 25.8477 23.3906" fill="none" xmlns="http://www.w3.org/2000/svg" xmlns:xlink="http://www.w3.org/1999/xlink">
	<desc>
			Created with Pixso.
	</desc>
	<defs/>
	<path id="Vector" d="M11.71 22.97C11.71 22.73 11.53 22.53 11.29 22.52C11.29 22.52 11.29 22.52 11.29 22.52C5.64 22.31 1.1 17.78 0.88 12.13L2.6 12.13C2.83 12.13 3.03 11.93 3.03 11.7C3.03 11.46 2.83 11.26 2.6 11.26L0.88 11.26C1.09 5.62 5.62 1.1 11.26 0.88L11.26 2.16C11.26 2.4 11.46 2.6 11.69 2.6C11.93 2.6 12.13 2.4 12.13 2.16L12.13 0.88C17.69 1.09 22.19 5.5 22.51 11.06L20.82 9.37C20.64 9.21 20.37 9.21 20.21 9.38C20.04 9.55 20.04 9.82 20.21 9.99L22.62 12.4C22.67 12.46 22.73 12.5 22.8 12.53C22.81 12.53 22.83 12.53 22.85 12.54C22.87 12.55 22.91 12.56 22.94 12.56C22.94 12.56 22.94 12.56 22.95 12.56C22.96 12.56 22.96 12.56 22.96 12.56C23 12.56 23.03 12.55 23.06 12.54C23.08 12.54 23.1 12.53 23.11 12.53C23.17 12.51 23.23 12.48 23.27 12.43L25.72 9.99C25.89 9.81 25.88 9.53 25.71 9.37C25.54 9.21 25.28 9.21 25.11 9.37L23.38 11.1C23.07 4.89 17.94 0.01 11.73 0C11.71 0 11.71 0 11.69 0C11.68 0 11.67 0 11.66 0C5.23 0.01 0.01 5.23 0 11.67C0 11.67 0 11.68 0 11.7C0 11.71 0 11.71 0 11.73C0.01 18 4.98 23.15 11.26 23.39L11.27 23.39C11.5 23.39 11.69 23.21 11.71 22.97Z" fill="#FFFFFF" fill-opacity="1.000000" fill-rule="nonzero"/>
	<path id="Vector" d="M17.51 5.87C17.35 5.71 17.07 5.71 16.91 5.87L12.25 10.53C11.89 10.37 11.49 10.37 11.14 10.53L8.94 8.32C8.76 8.16 8.49 8.16 8.32 8.33C8.16 8.5 8.16 8.77 8.32 8.93L10.52 11.14C10.21 11.78 10.49 12.56 11.14 12.87C11.63 13.1 12.23 13 12.61 12.61C13 12.23 13.1 11.64 12.86 11.14L17.51 6.49C17.69 6.32 17.69 6.04 17.51 5.87ZM12 12C12 12 12 12 12 12C11.83 12.17 11.56 12.17 11.39 12C11.22 11.83 11.22 11.56 11.39 11.39C11.56 11.22 11.83 11.22 12 11.39C12.17 11.56 12.17 11.83 12 12Z" fill="#FFFFFF" fill-opacity="1.000000" fill-rule="nonzero"/>
</svg>
