<svg width="23.000000" height="17.632812" viewBox="0 0 23 17.6328" fill="none" xmlns="http://www.w3.org/2000/svg" xmlns:xlink="http://www.w3.org/1999/xlink">
	<desc>
			Created with Pixso.
	</desc>
	<defs/>
	<path id="Vector" d="M21.85 0L1.14 0C0.51 0 0 0.51 0 1.14L0 16.48C0 17.11 0.51 17.63 1.14 17.63L21.85 17.63C22.48 17.63 23 17.11 23 16.48L23 1.14C23 0.51 22.48 0 21.85 0ZM22.23 16.48C22.23 16.69 22.06 16.86 21.85 16.86L1.14 16.86C0.93 16.86 0.76 16.69 0.76 16.48L0.76 1.14C0.76 0.93 0.93 0.76 1.14 0.76L21.85 0.76C22.06 0.76 22.23 0.93 22.23 1.14L22.23 16.48Z" fill="#FFFFFF" fill-opacity="1.000000" fill-rule="nonzero"/>
	<path id="Vector" d="M21.11 1.53C21.01 1.52 20.91 1.55 20.83 1.61L11.99 9.04C11.7 9.28 11.28 9.28 11 9.04L2.16 1.61C2.05 1.53 1.91 1.5 1.78 1.55C1.65 1.6 1.56 1.71 1.53 1.85C1.51 1.98 1.56 2.11 1.66 2.21L10.51 9.64C11.08 10.11 11.91 10.11 12.48 9.64L21.32 2.21C21.4 2.14 21.45 2.04 21.46 1.94C21.47 1.84 21.44 1.74 21.37 1.67C21.3 1.59 21.21 1.53 21.11 1.53Z" fill="#FFFFFF" fill-opacity="1.000000" fill-rule="nonzero"/>
	<path id="Vector" d="M7.37 9.58C7.23 9.55 7.09 9.6 7 9.7L1.63 15.45C1.53 15.55 1.5 15.7 1.54 15.83C1.58 15.96 1.69 16.07 1.82 16.1C1.96 16.12 2.1 16.08 2.19 15.97L7.56 10.22C7.66 10.13 7.69 9.98 7.65 9.85C7.61 9.71 7.5 9.61 7.37 9.58Z" fill="#FFFFFF" fill-opacity="1.000000" fill-rule="nonzero"/>
	<path id="Vector" d="M15.99 9.7C15.9 9.6 15.76 9.55 15.62 9.58C15.49 9.61 15.38 9.71 15.34 9.85C15.3 9.98 15.33 10.13 15.43 10.22L20.8 15.97C20.94 16.12 21.18 16.13 21.33 15.99C21.49 15.85 21.5 15.6 21.36 15.45L15.99 9.7Z" fill="#FFFFFF" fill-opacity="1.000000" fill-rule="nonzero"/>
</svg>
