<svg width="21.695312" height="21.695312" viewBox="0 0 21.6953 21.6953" fill="none" xmlns="http://www.w3.org/2000/svg" xmlns:xlink="http://www.w3.org/1999/xlink">
	<desc>
			Created with Pixso.
	</desc>
	<defs/>
	<path id="Vector" d="M18.51 14.02C17.33 12.84 15.92 11.96 14.39 11.43C16.03 10.3 17.11 8.41 17.11 6.26C17.11 2.81 14.3 0 10.84 0C7.39 0 4.57 2.81 4.57 6.26C4.57 8.41 5.65 10.3 7.3 11.43C5.76 11.96 4.35 12.84 3.17 14.02C1.12 16.07 0 18.79 0 21.69L1.69 21.69C1.69 16.64 5.8 12.54 10.84 12.54C15.89 12.54 20 16.64 20 21.69L21.69 21.69C21.69 18.79 20.56 16.07 18.51 14.02ZM10.84 10.84C8.32 10.84 6.26 8.79 6.26 6.26C6.26 3.74 8.32 1.69 10.84 1.69C13.37 1.69 15.42 3.74 15.42 6.26C15.42 8.79 13.37 10.84 10.84 10.84Z" fill="#333333" fill-opacity="1.000000" fill-rule="nonzero"/>
	<path id="Vector" d="" fill="#FFFFFF" fill-opacity="1.000000" fill-rule="evenodd"/>
</svg>
