<svg width="24.140625" height="24.070312" viewBox="0 0 24.1406 24.0703" fill="none" xmlns="http://www.w3.org/2000/svg" xmlns:xlink="http://www.w3.org/1999/xlink">
	<desc>
			Created with Pixso.
	</desc>
	<defs/>
	<path id="Vector" d="M0.5 0.03C0.4 0.05 0.32 0.1 0.21 0.2C-0.02 0.43 -0.06 0.69 0.07 0.99C0.14 1.14 0.27 1.27 0.41 1.34C0.45 1.35 1.18 1.37 2.05 1.38L3.63 1.4L3.74 1.89C3.8 2.16 4.07 3.34 4.34 4.51C4.82 6.6 5.6 10.01 6.35 13.3C6.57 14.23 6.74 15.01 6.74 15.03C6.74 15.04 6.61 15.12 6.46 15.2C5.89 15.48 5.46 15.92 5.2 16.49C4.74 17.48 4.92 18.68 5.64 19.46L5.82 19.67L5.69 19.81C5.2 20.36 4.96 21.17 5.07 21.89C5.23 22.94 5.96 23.74 6.98 24C7.28 24.08 7.83 24.08 8.15 23.99C9.02 23.75 9.7 23.06 9.93 22.16C10.07 21.67 10.01 20.98 9.81 20.51L9.75 20.37L14.26 20.37L18.78 20.37L18.71 20.55C18.57 20.9 18.53 21.13 18.53 21.53C18.53 21.98 18.59 22.27 18.78 22.67C19.23 23.6 20.25 24.17 21.27 24.05C22.3 23.93 23.12 23.2 23.4 22.16C23.49 21.84 23.5 21.25 23.42 20.94C23.21 20.14 22.73 19.54 22.03 19.21C21.52 18.97 22.21 18.99 14.34 18.98C7.47 18.96 7.28 18.95 7.14 18.89C6.82 18.75 6.56 18.5 6.41 18.19C6.33 18.02 6.32 17.98 6.32 17.65C6.32 17.33 6.33 17.29 6.42 17.09C6.6 16.7 6.98 16.41 7.39 16.33C7.53 16.32 9.71 16.3 13.88 16.3C18.32 16.3 20.22 16.3 20.33 16.27C20.82 16.17 21.3 15.78 21.51 15.32C21.59 15.16 21.69 14.82 21.83 14.23C22.04 13.33 22.4 11.84 22.8 10.18C22.92 9.64 23.1 8.92 23.18 8.56C23.27 8.2 23.51 7.19 23.72 6.3C23.94 5.42 24.12 4.61 24.13 4.5C24.19 3.83 23.74 3.14 23.09 2.94C22.9 2.87 22.75 2.87 14.12 2.87C9.3 2.87 5.35 2.87 5.35 2.86C5.35 2.85 5.22 2.3 5.07 1.63C4.76 0.27 4.74 0.23 4.47 0.08L4.32 0L2.47 0C1.36 -0.01 0.58 0.01 0.5 0.03ZM22.73 4.29C22.75 4.32 22.78 4.36 22.78 4.38C22.78 4.42 22.42 5.92 22.34 6.25L22.31 6.37L14.23 6.37C9.79 6.37 6.16 6.37 6.16 6.36C6.16 6.35 6.05 5.9 5.92 5.35C5.8 4.8 5.69 4.33 5.69 4.3C5.69 4.25 6.11 4.24 14.18 4.24C21.87 4.24 22.68 4.25 22.73 4.29ZM21.97 7.78C21.97 7.79 21.77 8.64 21.28 10.7C21.1 11.43 20.81 12.64 20.64 13.37C20.33 14.64 20.32 14.71 20.22 14.8L20.12 14.91L14.12 14.91L8.12 14.91L7.3 11.36C6.86 9.41 6.5 7.8 6.5 7.79C6.5 7.76 21.97 7.75 21.97 7.78ZM7.99 20.47C8.9 20.9 8.86 22.21 7.92 22.6C7.72 22.69 7.37 22.69 7.16 22.61C6.8 22.47 6.57 22.22 6.46 21.85C6.28 21.25 6.6 20.62 7.22 20.41C7.42 20.35 7.78 20.37 7.99 20.47ZM21.47 20.48C21.7 20.58 21.91 20.8 22.03 21.06C22.1 21.21 22.11 21.28 22.11 21.53C22.11 21.89 22.02 22.1 21.77 22.35C21.55 22.58 21.33 22.66 21 22.67C20.78 22.67 20.72 22.65 20.54 22.57C20.2 22.41 19.98 22.12 19.9 21.76C19.85 21.55 19.86 21.41 19.93 21.18C20.13 20.52 20.84 20.19 21.47 20.48Z" fill="#333333" fill-opacity="1.000000" fill-rule="nonzero"/>
</svg>
