<svg width="24.019531" height="21.695312" viewBox="0 0 24.0195 21.6953" fill="none" xmlns="http://www.w3.org/2000/svg" xmlns:xlink="http://www.w3.org/1999/xlink">
	<desc>
			Created with Pixso.
	</desc>
	<defs/>
	<path id="Vector" d="M12 21.69C11.66 21.69 11.33 21.57 11.08 21.33C10.1 20.48 9.17 19.66 8.35 18.95L8.34 18.95C5.92 16.85 3.83 15.05 2.38 13.26C0.75 11.27 0 9.39 0 7.32C0 5.32 0.67 3.47 1.9 2.12C3.14 0.75 4.85 0 6.71 0C8.09 0 9.36 0.44 10.48 1.32C11.04 1.76 11.55 2.3 12 2.94C12.46 2.3 12.97 1.76 13.53 1.32C14.65 0.44 15.92 0 17.3 0C19.16 0 20.87 0.75 22.11 2.12C23.34 3.47 24.01 5.32 24.01 7.32C24.01 9.39 23.26 11.27 21.63 13.26C20.18 15.05 18.09 16.85 15.67 18.95C14.84 19.66 13.91 20.47 12.93 21.33C12.67 21.57 12.35 21.69 12 21.69ZM6.71 1.42C5.25 1.42 3.91 2.01 2.94 3.08C1.95 4.17 1.4 5.68 1.4 7.32C1.4 9.06 2.04 10.61 3.46 12.35C4.83 14.04 6.88 15.81 9.25 17.86L9.26 17.86C10.08 18.58 11.03 19.39 12 20.26C12.99 19.39 13.92 18.58 14.76 17.86C17.13 15.81 19.17 14.04 20.55 12.35C21.97 10.61 22.61 9.06 22.61 7.32C22.61 5.68 22.3 4.35 21.07 3.08C19.95 1.93 18.76 1.42 17.3 1.42C16.24 1.42 15.26 1.77 14.39 2.45C13.62 3.05 13.08 3.82 12.77 4.35C12.6 4.63 12.32 4.8 12 4.8C11.69 4.8 11.41 4.63 11.24 4.35C10.93 3.82 10.39 3.05 9.62 2.45C8.75 1.77 7.77 1.42 6.71 1.42Z" fill="#333333" fill-opacity="1.000000" fill-rule="nonzero"/>
	<path id="Vector" d="" fill="#333333" fill-opacity="1.000000" fill-rule="evenodd"/>
</svg>
