<svg width="41.593750" height="42.675781" viewBox="0 0 41.5938 42.6758" fill="none" xmlns="http://www.w3.org/2000/svg" xmlns:xlink="http://www.w3.org/1999/xlink">
	<desc>
			Created with Pixso.
	</desc>
	<defs/>
	<path id="Vector" d="M37.3 0.04C36.8 0.14 35.84 0.56 34.58 1.24C32.04 2.59 29.98 4.17 28.06 6.22C26.98 7.37 26.17 8.42 25.44 9.6C25.25 9.89 25.12 9.88 24.08 9.47C21.71 8.52 20.05 8.17 18.3 8.23C17.04 8.27 16.14 8.5 15.19 9.04C14 9.71 14.01 10.54 15.22 11.37C15.61 11.65 15.91 12.04 16.16 12.58C16.58 13.56 16.73 14.54 16.75 16.57C16.76 17.28 16.76 17.3 16.9 17.55C17.14 18 17.55 18.07 18.13 17.76C18.41 17.62 18.83 17.23 21.3 14.83C22.88 13.32 24.22 12.04 24.3 12C24.67 11.77 24.69 11.95 24.36 12.56C23.37 14.36 22.76 16.7 22.64 19.21C22.59 20.1 22.6 21.25 22.67 21.96L22.73 22.62L22.32 23.22C21.67 24.14 20.97 25.31 19.81 27.32C18.08 30.32 17.33 31.49 16.21 32.97C15.3 34.18 14.6 34.78 13.55 35.25C12.69 35.64 11.85 35.86 9.89 36.19C7.21 36.64 5.72 37 3.99 37.6C2.19 38.24 0.54 39.15 0.15 39.73C-0.13 40.14 -0.04 40.46 0.43 40.74C0.92 41.03 2.14 41.42 3.39 41.69C6.82 42.42 10.09 42.74 13.56 42.66C16.72 42.59 17.98 42.36 19.4 41.6C21.21 40.64 22.44 38.83 22.88 36.51C22.99 35.96 22.99 35.94 22.92 33.94C22.87 32.15 22.88 31.85 22.94 31.16C23.38 26.79 24.87 23.48 27.46 21.14C28.31 20.37 30.12 19.21 31.25 18.69C31.71 18.48 32.24 18.31 32.66 18.24C33.54 18.08 34.16 18.35 34.52 19.03C34.75 19.47 34.85 19.98 34.88 20.85C34.98 23.42 34.88 25.8 34.43 32.08C34.23 34.92 33.9 39.3 33.86 39.66L33.84 39.86L34.23 39.84L34.62 39.83L34.79 37.82C34.96 35.86 35.22 32.86 35.56 29.04C35.8 26.37 36.03 24.72 36.43 22.82C37.14 19.5 38.25 16.62 39.58 14.59C40.01 13.95 40.68 13.12 41.07 12.77C41.39 12.47 41.6 12.17 41.59 12C41.58 11.67 41.32 11.31 40.98 11.13C40.23 10.72 38.62 10.8 37.28 11.33C36.23 11.74 34.64 12.57 33.29 13.4C32.9 13.65 32.56 13.85 32.53 13.85C32.51 13.85 32.3 13.71 32.08 13.53C31.6 13.17 30.39 12.43 29.76 12.1C29.17 11.79 27.91 11.24 27.28 11.01C26.85 10.86 26.72 10.79 26.49 10.58C26.2 10.33 26.14 10.17 26.29 10.09C26.33 10.06 26.54 10.01 26.76 9.98C27.75 9.81 29.25 9.45 30.5 9.08C33.58 8.17 36.11 7.01 38.15 5.57C38.81 5.1 39.15 4.78 39.23 4.56C39.33 4.3 39.29 3.89 39.09 3.24C38.99 2.91 38.76 2.12 38.59 1.48C38.41 0.83 38.25 0.28 38.22 0.23C38.1 0.02 37.74 -0.06 37.3 0.04ZM36.2 1.14C36.36 1.31 36.38 1.43 36.28 1.62C35.71 2.6 29.32 7.6 27.02 8.84C26.52 9.11 26.33 9.18 26.28 9.11C26.24 9.05 26.98 8.17 28 7.05C30.67 4.12 33.24 2.09 35.39 1.23C35.91 1.02 36.07 1.01 36.2 1.14ZM25.46 10.1C25.53 10.15 25.64 10.25 25.69 10.34C25.85 10.55 25.85 10.98 25.69 11.19C25.39 11.6 24.87 11.66 24.51 11.33C24.14 10.98 24.2 10.42 24.64 10.1C24.76 10.01 24.83 9.99 25.06 10C25.23 10 25.37 10.04 25.46 10.1ZM40.46 11.19C41.47 11.37 41.41 11.89 40.29 12.69C39.32 13.39 37.52 14.32 35.71 15.05C35.48 15.15 35.07 15.32 34.8 15.45L34.32 15.67L34.1 15.39C33.98 15.24 33.67 14.91 33.4 14.65C33.14 14.39 32.94 14.17 32.95 14.15C33.04 14.06 34.57 13.12 35.25 12.73C36.12 12.25 36.57 12.02 37.28 11.74C38.5 11.25 39.67 11.05 40.46 11.19ZM23.63 11.91C23.63 12 23.28 12.38 22.24 13.45C19.79 15.96 18.62 17.09 18.19 17.35C17.73 17.64 17.5 17.51 17.49 16.95C17.48 16.67 17.5 16.62 17.64 16.39C18.23 15.44 19.82 14.09 22.08 12.62C23.44 11.74 23.62 11.66 23.63 11.91ZM25.58 11.96C26.12 12.51 26.92 15 27.17 16.95C27.22 17.24 27.26 17.56 27.27 17.65C27.3 17.82 27.28 17.84 26.92 18.17C26.71 18.36 26.53 18.5 26.52 18.5C26.51 18.48 26.42 18.33 26.31 18.16C25.54 16.95 25.05 14.82 25.07 12.79C25.07 11.98 25.11 11.83 25.32 11.83C25.39 11.83 25.49 11.88 25.58 11.96ZM33.35 16.15C33.31 16.19 33.04 16.33 33.04 16.31C33.03 16.28 33.27 16.14 33.33 16.14C33.35 16.13 33.36 16.14 33.35 16.15ZM32.9 16.4C32.9 16.41 32.87 16.43 32.83 16.45C32.79 16.46 32.77 16.46 32.79 16.43C32.81 16.38 32.9 16.36 32.9 16.4ZM32.54 16.6C32.44 16.67 32.33 16.73 32.32 16.73C32.27 16.72 32.64 16.48 32.69 16.48C32.72 16.48 32.65 16.53 32.54 16.6ZM27.34 18.53C27.36 18.61 27.38 19.07 27.39 19.55L27.39 20.42L26.71 21.17C25.54 22.46 24.99 23.22 24.02 24.91C23.3 26.15 22.9 27 22.67 27.75C22.37 28.71 22.17 29.87 22.05 31.29C21.92 32.86 21.47 33.92 20.47 34.98C19.82 35.67 19.21 36.1 17.95 36.77C16.88 37.33 16.58 37.45 15.78 37.59C13.72 37.94 10.21 37.92 9.89 37.56C9.82 37.48 9.84 37.19 9.92 37.08C10.03 36.95 10.32 36.83 11.43 36.45C13.15 35.85 14.12 35.39 15.14 34.66C16.17 33.93 16.71 33.16 18.86 29.43C21.37 25.07 22.42 23.52 24.37 21.31C25.14 20.44 27.17 18.39 27.28 18.38C27.3 18.38 27.32 18.45 27.34 18.53Z" fill="#E31F1F" fill-opacity="1.000000" fill-rule="nonzero"/>
</svg>
