<svg width="14.515625" height="14.355469" viewBox="0 0 14.5156 14.3555" fill="none" xmlns="http://www.w3.org/2000/svg" xmlns:xlink="http://www.w3.org/1999/xlink">
	<desc>
			Created with Pixso.
	</desc>
	<defs/>
	<path id="Vector" d="M14.33 13.33L10.8 9.83C11.66 8.8 12.18 7.47 12.18 6.02C12.18 2.69 9.45 0 6.09 0C2.72 0 0 2.69 0 6.02C0 9.35 2.72 12.05 6.09 12.05C7.55 12.05 8.9 11.54 9.95 10.69L13.48 14.17C13.71 14.41 14.09 14.41 14.33 14.17C14.57 13.94 14.57 13.56 14.33 13.33ZM1.2 6.02C1.2 3.35 3.39 1.19 6.08 1.19C8.78 1.19 10.97 3.35 10.97 6.02C10.97 8.69 8.78 10.85 6.08 10.85C3.39 10.85 1.2 8.69 1.2 6.02Z" fill="#333333" fill-opacity="1.000000" fill-rule="nonzero"/>
</svg>
