<svg width="28.910156" height="24.941406" viewBox="0 0 28.9102 24.9414" fill="none" xmlns="http://www.w3.org/2000/svg" xmlns:xlink="http://www.w3.org/1999/xlink">
	<desc>
			Created with Pixso.
	</desc>
	<defs/>
	<path id="Vector" d="M8.09 16.85L11.28 15.46L10.39 16.36C10.1 16.65 9.94 17.04 9.94 17.44L9.94 23.41C9.94 24.77 11.59 25.44 12.54 24.49L15.75 21.28L22.72 24.77C23.62 25.23 24.71 24.69 24.9 23.68L28.88 1.8C29.09 0.62 27.93 -0.33 26.82 0.1L0.96 10.23C-0.2 10.67 -0.35 12.26 0.7 12.93L6.67 16.74C7.09 17.01 7.63 17.05 8.09 16.85ZM25.39 3.94L22.26 21.14L16.12 18.07C15.53 17.77 14.82 17.89 14.37 18.35L12.99 19.73L12.99 18.08L19.1 11.96C20.29 10.78 18.96 8.82 17.42 9.48L7.62 13.73L4.87 11.98L25.39 3.94Z" fill="#FFFFFF" fill-opacity="1.000000" fill-rule="nonzero"/>
</svg>
