<svg width="27.562500" height="27.687500" viewBox="0 0 27.5625 27.6875" fill="none" xmlns="http://www.w3.org/2000/svg" xmlns:xlink="http://www.w3.org/1999/xlink">
	<desc>
			Created with Pixso.
	</desc>
	<defs/>
	<path id="Vector" d="M23.54 4.02C20.95 1.42 17.5 0 13.83 0C6.27 0 0.11 6.15 0.11 13.71C0.11 16.13 0.74 18.49 1.94 20.57L0 27.68L7.27 25.77C9.27 26.87 11.53 27.44 13.83 27.44L13.83 27.44C21.4 27.44 27.55 21.29 27.56 13.72C27.56 10.06 26.13 6.61 23.54 4.02ZM13.83 25.13L13.83 25.13C11.78 25.13 9.78 24.57 8.03 23.54L7.61 23.29L3.29 24.42L4.44 20.21L4.17 19.78C3.03 17.97 2.42 15.87 2.42 13.71C2.42 7.43 7.55 2.32 13.84 2.32C16.89 2.32 19.75 3.5 21.9 5.66C24.05 7.82 25.24 10.67 25.24 13.72C25.24 20.01 20.12 25.13 13.83 25.13ZM20.09 16.58C19.75 16.41 18.06 15.58 17.75 15.47C17.43 15.35 17.2 15.3 16.98 15.64C16.75 15.99 16.09 16.76 15.89 16.99C15.69 17.21 15.49 17.25 15.15 17.07C14.8 16.9 13.7 16.54 12.39 15.37C11.37 14.46 10.68 13.33 10.48 13C10.28 12.65 10.46 12.47 10.63 12.3C10.79 12.14 10.98 11.9 11.15 11.69C11.32 11.5 11.38 11.35 11.49 11.12C11.6 10.9 11.55 10.69 11.46 10.52C11.38 10.35 10.69 8.66 10.4 7.98C10.12 7.31 9.84 7.4 9.63 7.39C9.43 7.38 9.21 7.38 8.98 7.38C8.75 7.38 8.37 7.46 8.06 7.81C7.75 8.15 6.86 8.98 6.86 10.67C6.86 12.35 8.09 13.99 8.26 14.22C8.43 14.44 10.68 17.91 14.12 19.39C14.94 19.74 15.58 19.95 16.07 20.11C16.89 20.37 17.64 20.33 18.24 20.25C18.89 20.15 20.26 19.42 20.55 18.62C20.83 17.82 20.83 17.13 20.75 16.99C20.66 16.85 20.43 16.76 20.09 16.58Z" fill="#FFFFFF" fill-opacity="1.000000" fill-rule="evenodd"/>
</svg>
