<svg width="23.101562" height="20.710938" viewBox="0 0 23.1016 20.7109" fill="none" xmlns="http://www.w3.org/2000/svg" xmlns:xlink="http://www.w3.org/1999/xlink">
	<desc>
			Created with Pixso.
	</desc>
	<defs/>
	<path id="Vector" d="M11.55 20.71C11.22 20.71 10.9 20.58 10.65 20.37C9.72 19.55 8.82 18.77 8.03 18.09L8.02 18.09C5.69 16.09 3.69 14.36 2.29 12.66C0.72 10.76 0 8.96 0 6.99C0 5.08 0.65 3.32 1.83 2.02C3.02 0.71 4.66 0 6.45 0C7.78 0 9 0.42 10.08 1.26C10.62 1.68 11.11 2.2 11.55 2.8C11.98 2.2 12.47 1.68 13.01 1.26C14.09 0.42 15.31 0 16.64 0C18.42 0 20.07 0.71 21.26 2.02C22.44 3.32 23.1 5.08 23.1 6.99C23.1 8.96 22.37 10.76 20.8 12.66C19.41 14.36 17.4 16.09 15.07 18.09C14.28 18.77 13.37 19.55 12.44 20.37C12.19 20.58 11.87 20.71 11.55 20.71ZM6.45 1.36C5.05 1.36 3.76 1.92 2.82 2.94C1.87 3.99 1.35 5.42 1.35 6.99C1.35 8.65 1.96 10.13 3.33 11.79C4.65 13.4 6.62 15.09 8.9 17.05L8.91 17.05C9.7 17.74 10.6 18.51 11.54 19.34C12.49 18.51 13.39 17.73 14.19 17.05C16.47 15.09 18.44 13.4 19.76 11.79C21.13 10.13 21.74 8.65 21.74 6.99C21.74 5.42 21.45 4.15 20.27 2.94C19.19 1.84 18.05 1.36 16.64 1.36C15.62 1.36 14.67 1.69 13.84 2.33C13.1 2.91 12.58 3.65 12.28 4.16C12.12 4.42 11.85 4.58 11.55 4.58C11.24 4.58 10.97 4.42 10.81 4.16C10.51 3.65 9.99 2.91 9.25 2.33C8.42 1.69 7.48 1.36 6.45 1.36Z" fill="#FFFFFF" fill-opacity="1.000000" fill-rule="nonzero"/>
	<path id="Vector" d="" fill="#FFFFFF" fill-opacity="1.000000" fill-rule="evenodd"/>
</svg>
