<svg width="76.257812" height="63.890625" viewBox="0 0 76.2578 63.8906" fill="none" xmlns="http://www.w3.org/2000/svg" xmlns:xlink="http://www.w3.org/1999/xlink">
	<desc>
			Created with Pixso.
	</desc>
	<defs/>
	<path id="Vector" d="M26.96 26.85C26.14 24.61 25.99 22.23 26.5 19.95C27.01 17.61 28.12 15.43 29.85 13.65C34.73 8.64 42.81 8.53 47.78 13.45L48.04 13.71L47.99 11.98C47.99 11.78 48.14 11.63 48.34 11.63C48.55 11.63 48.7 11.78 48.7 11.98L48.75 14.57C48.75 14.77 48.6 14.92 48.39 14.92L45.8 14.97C45.6 14.97 45.45 14.82 45.45 14.62C45.45 14.42 45.6 14.26 45.8 14.26L47.53 14.21L47.28 13.96C44.99 11.73 41.94 10.51 38.74 10.56C35.54 10.61 32.55 11.88 30.31 14.16C27.06 17.46 26.04 22.23 27.62 26.59C27.67 26.79 27.57 27 27.41 27.05C27.36 27.05 27.31 27.1 27.31 27.1C27.11 27.05 27.01 27 26.96 26.85ZM47.48 30.9C42.86 35.62 35.24 35.72 30.56 31.1L30.26 30.85L31.99 30.8C32.19 30.8 32.34 30.6 32.34 30.45C32.34 30.25 32.14 30.09 31.99 30.09L29.39 30.14C29.19 30.14 29.04 30.35 29.04 30.5L29.09 33.09C29.09 33.29 29.29 33.44 29.44 33.44C29.65 33.44 29.8 33.24 29.8 33.09L29.75 31.36L30 31.61C32.5 34 35.69 35.21 38.89 35.21C42.2 35.21 45.5 33.95 47.99 31.41C49.72 29.68 50.83 27.5 51.34 25.12C51.8 22.84 51.65 20.46 50.89 18.22C50.83 18.02 50.63 17.92 50.43 18.02C50.23 18.07 50.12 18.27 50.23 18.47C51.7 22.84 50.68 27.56 47.48 30.9Z" fill="#F55656" fill-opacity="1.000000" fill-rule="nonzero"/>
	<path id="Vector" d="M26.5 19.95C27.01 17.61 28.12 15.43 29.85 13.65C34.73 8.64 42.81 8.53 47.78 13.45L48.04 13.71L47.99 11.98C47.99 11.78 48.14 11.63 48.34 11.63C48.55 11.63 48.7 11.78 48.7 11.98L48.75 14.57C48.75 14.77 48.6 14.92 48.39 14.92L45.8 14.97C45.6 14.97 45.45 14.82 45.45 14.62C45.45 14.42 45.6 14.26 45.8 14.26L47.53 14.21L47.28 13.96C44.99 11.73 41.94 10.51 38.74 10.56C35.54 10.61 32.55 11.88 30.31 14.16C27.06 17.46 26.04 22.23 27.62 26.59C27.67 26.79 27.57 27 27.41 27.05C27.36 27.05 27.31 27.1 27.31 27.1C27.11 27.05 27.01 27 26.96 26.85C26.14 24.61 25.99 22.23 26.5 19.95ZM30.56 31.1L30.26 30.85L31.99 30.8C32.19 30.8 32.34 30.6 32.34 30.45C32.34 30.25 32.14 30.09 31.99 30.09L29.39 30.14C29.19 30.14 29.04 30.35 29.04 30.5L29.09 33.09C29.09 33.29 29.29 33.44 29.44 33.44C29.65 33.44 29.8 33.24 29.8 33.09L29.75 31.36L30 31.61C32.5 34 35.69 35.21 38.89 35.21C42.2 35.21 45.5 33.95 47.99 31.41C49.72 29.68 50.83 27.5 51.34 25.12C51.8 22.84 51.65 20.46 50.89 18.22C50.83 18.02 50.63 17.92 50.43 18.02C50.23 18.07 50.12 18.27 50.23 18.47C51.7 22.84 50.68 27.56 47.48 30.9C42.86 35.62 35.24 35.72 30.56 31.1Z" stroke="#F55656" stroke-opacity="1.000000" stroke-width="1.100000"/>
	<path id="Path 1066" d="M4.43 0C3.85 -0.01 3.26 0.1 2.73 0.32C2.18 0.54 1.69 0.87 1.28 1.28C0.87 1.69 0.54 2.18 0.32 2.73C0.1 3.27 -0.01 3.85 0 4.43L0 48.8C-0.01 49.38 0.1 49.96 0.32 50.5C0.54 51.05 0.86 51.54 1.28 51.96C1.69 52.37 2.18 52.7 2.72 52.92C3.26 53.14 3.85 53.25 4.43 53.24L31.03 53.24L31.03 62.11L27.49 62.11C27.25 62.11 27.03 62.21 26.86 62.37C26.69 62.54 26.6 62.77 26.6 63C26.6 63.24 26.69 63.46 26.86 63.63C27.03 63.79 27.25 63.89 27.49 63.89L48.76 63.89C49 63.89 49.23 63.79 49.39 63.63C49.56 63.46 49.65 63.24 49.65 63C49.65 62.77 49.56 62.54 49.39 62.37C49.23 62.21 49 62.11 48.76 62.11L45.22 62.11L45.22 53.24L71.82 53.24C72.4 53.25 72.98 53.14 73.52 52.92C74.07 52.7 74.56 52.37 74.97 51.96C75.38 51.54 75.71 51.05 75.93 50.51C76.15 49.97 76.26 49.39 76.25 48.8L76.25 4.43C76.26 3.85 76.15 3.27 75.93 2.73C75.71 2.18 75.38 1.69 74.97 1.28C74.56 0.87 74.07 0.54 73.52 0.32C72.98 0.1 72.4 -0.01 71.82 0L4.43 0ZM4.43 1.77L71.82 1.77C72.17 1.76 72.52 1.82 72.85 1.96C73.17 2.09 73.48 2.28 73.72 2.53C73.97 2.78 74.17 3.08 74.3 3.41C74.43 3.74 74.5 4.09 74.49 4.44L74.49 40.82L1.77 40.82L1.77 4.44C1.76 4.09 1.83 3.74 1.96 3.41C2.09 3.09 2.28 2.79 2.53 2.54C2.78 2.29 3.08 2.1 3.4 1.96C3.73 1.83 4.08 1.77 4.43 1.77L4.43 1.77ZM1.76 42.59L74.47 42.59L74.47 48.8C74.48 49.16 74.41 49.51 74.28 49.83C74.15 50.16 73.96 50.46 73.71 50.71C73.46 50.96 73.16 51.16 72.83 51.28C72.51 51.42 72.16 51.48 71.8 51.47L4.43 51.47C4.08 51.48 3.73 51.42 3.4 51.28C3.07 51.16 2.78 50.96 2.53 50.71C2.28 50.46 2.08 50.16 1.95 49.83C1.82 49.51 1.75 49.16 1.76 48.8L1.76 42.59ZM38.12 45.26C37.76 45.26 37.42 45.37 37.13 45.57C36.84 45.76 36.61 46.03 36.48 46.35C36.34 46.68 36.31 47.04 36.38 47.39C36.44 47.73 36.61 48.04 36.86 48.29C37.11 48.54 37.42 48.71 37.77 48.78C38.11 48.85 38.47 48.81 38.8 48.67C39.12 48.54 39.39 48.32 39.59 48.03C39.78 47.73 39.89 47.39 39.89 47.03C39.89 46.57 39.71 46.11 39.38 45.78C39.05 45.44 38.6 45.25 38.12 45.25L38.12 45.26ZM32.8 53.24L43.44 53.24L43.44 62.11L32.8 62.11L32.8 53.24Z" fill="#F55656" fill-opacity="1.000000" fill-rule="nonzero"/>
</svg>
