<svg width="88.000000" height="63.070312" viewBox="0 0 88 63.0703" fill="none" xmlns="http://www.w3.org/2000/svg" xmlns:xlink="http://www.w3.org/1999/xlink">
	<desc>
			Created with Pixso.
	</desc>
	<defs/>
	<path id="Vector" d="M79.25 7.54C78.66 6.96 77.78 6.96 77.2 7.44C76.62 8.03 76.62 8.9 77.1 9.49C81.97 14.74 84.69 21.45 85.08 28.45L82.07 28.45C81.28 28.45 80.6 29.13 80.6 29.9C80.6 30.68 81.28 31.36 82.07 31.36L85.08 31.36C84.3 46.92 71.85 59.37 56.39 60.05L56.39 57.03C56.39 56.25 55.71 55.57 54.94 55.57C54.16 55.57 53.48 56.25 53.48 57.03L53.48 60.05C38.01 59.27 25.57 46.82 24.79 31.36L27.8 31.36C28.58 31.36 29.26 30.68 29.26 29.9C29.26 29.13 28.58 28.45 27.8 28.45L24.79 28.45C25.37 17.46 31.99 7.54 42 2.78C42.68 2.39 43.07 1.6 42.68 0.83C42.29 0.15 41.42 -0.24 40.74 0.15C29.26 5.6 21.87 17.26 21.87 30C21.87 48.18 36.75 63.07 54.94 63.07C73.12 63.07 88 48.18 88 30C88 21.64 84.88 13.67 79.25 7.54Z" fill="#F55656" fill-opacity="1.000000" fill-rule="nonzero"/>
	<path id="Vector" d="M40.74 0.15C29.26 5.6 21.87 17.26 21.87 30C21.87 48.18 36.75 63.07 54.94 63.07C73.12 63.07 88 48.18 88 30C88 21.64 84.88 13.67 79.25 7.54C78.66 6.96 77.78 6.96 77.2 7.44C76.62 8.03 76.62 8.9 77.1 9.49C81.85 14.61 84.56 21.13 85.05 27.95C85.06 28.11 85.07 28.28 85.08 28.45L82.07 28.45C81.28 28.45 80.6 29.13 80.6 29.9C80.6 30.68 81.28 31.36 82.07 31.36L85.08 31.36C85.07 31.53 85.06 31.7 85.05 31.86C84.04 47.02 71.96 59.11 56.89 60.03C56.73 60.03 56.56 60.04 56.39 60.05L56.39 57.03C56.39 56.25 55.71 55.57 54.94 55.57C54.16 55.57 53.48 56.25 53.48 57.03L53.48 60.05C53.31 60.04 53.14 60.03 52.98 60.02C37.91 59.01 25.83 46.92 24.82 31.86C24.81 31.7 24.8 31.53 24.79 31.36L27.8 31.36C28.58 31.36 29.26 30.68 29.26 29.9C29.26 29.13 28.58 28.45 27.8 28.45L24.79 28.45C24.8 28.28 24.81 28.11 24.82 27.95C25.58 17.16 32.14 7.46 42 2.78C42.68 2.39 43.07 1.6 42.68 0.83C42.29 0.15 41.42 -0.24 40.74 0.15ZM42.24 1.07Q42.13 0.87 41.96 0.74Q41.82 0.62 41.64 0.56Q41.38 0.46 41.16 0.51Q41.07 0.53 40.99 0.58L40.97 0.6L40.95 0.6Q36.89 2.53 33.61 5.37Q30.05 8.46 27.42 12.6Q24.82 16.74 23.55 21.24Q22.37 25.46 22.37 30Q22.37 36.55 24.65 42.18Q27.04 48.1 31.94 53Q36.84 57.9 42.75 60.28Q48.39 62.57 54.94 62.57Q61.48 62.57 67.12 60.28Q73.03 57.9 77.93 53Q82.83 48.1 85.22 42.18Q87.5 36.55 87.5 30Q87.5 23.56 85.3 17.97Q83.14 12.52 78.88 7.89Q78.55 7.56 78.21 7.55Q77.88 7.53 77.54 7.82Q77.22 8.14 77.21 8.47Q77.19 8.81 77.48 9.15Q80.94 12.89 82.92 17.28Q85.24 22.4 85.58 28.42L85.61 28.95L82.07 28.95Q81.58 28.95 81.35 29.18Q81.1 29.42 81.1 29.9Q81.1 30.03 81.14 30.16Q81.21 30.39 81.4 30.57Q81.58 30.76 81.81 30.83Q81.93 30.86 82.07 30.86L85.6 30.86L85.58 31.39Q85.28 37.34 83.02 42.42Q80.77 47.46 76.6 51.64Q72.31 55.92 67.14 58.15Q62.19 60.29 56.42 60.55L55.89 60.57L55.89 57.03Q55.89 56.9 55.86 56.78Q55.79 56.56 55.6 56.37Q55.41 56.17 55.19 56.11Q55.07 56.07 54.94 56.07Q54.8 56.07 54.68 56.11Q54.46 56.17 54.27 56.37Q54.08 56.56 54.01 56.78Q53.98 56.9 53.98 57.03L53.98 60.57L53.45 60.55Q47.67 60.26 42.72 58.1Q37.55 55.85 33.27 51.57Q29 47.28 26.75 42.13Q24.58 37.17 24.29 31.39L24.26 30.86L27.8 30.86Q27.94 30.86 28.06 30.83Q28.28 30.76 28.47 30.57Q28.66 30.39 28.73 30.16Q28.76 30.03 28.76 29.9Q28.76 29.42 28.52 29.18Q28.28 28.95 27.8 28.95L24.26 28.95L24.29 28.42Q24.5 24.44 25.67 20.76Q26.97 16.69 29.44 13Q31.87 9.37 35.07 6.64Q38.08 4.09 41.77 2.33Q42.26 2.05 42.34 1.67Q42.4 1.39 42.24 1.07Z" fill="#FFFFFF" fill-opacity="1.000000" fill-rule="evenodd"/>
	<path id="Vector" d="M53.77 25.63L37.92 9.78C37.33 9.19 36.46 9.19 35.88 9.78C35.3 10.36 35.3 11.24 35.88 11.82L51.34 27.28C50.76 28.06 50.46 28.93 50.46 30C50.46 32.53 52.51 34.47 54.94 34.47C57.37 34.47 59.41 32.43 59.41 30C59.41 29.32 59.21 28.64 58.92 28.06L71.76 15.22C72.34 14.64 72.34 13.76 71.76 13.18C71.17 12.6 70.3 12.6 69.72 13.18L56.88 25.92C56.3 25.63 55.62 25.43 54.94 25.43C54.55 25.43 54.16 25.53 53.77 25.63Z" fill="#F55656" fill-opacity="1.000000" fill-rule="nonzero"/>
	<path id="Vector" d="M53.77 25.63L37.92 9.78C37.33 9.19 36.46 9.19 35.88 9.78C35.3 10.36 35.3 11.24 35.88 11.82L51.34 27.28C50.76 28.06 50.46 28.93 50.46 30C50.46 32.53 52.51 34.47 54.94 34.47C57.37 34.47 59.41 32.43 59.41 30C59.41 29.32 59.21 28.64 58.92 28.06L71.76 15.22C72.34 14.64 72.34 13.76 71.76 13.18C71.17 12.6 70.3 12.6 69.72 13.18L56.88 25.92C56.3 25.63 55.62 25.43 54.94 25.43C54.55 25.43 54.16 25.53 53.77 25.63ZM37.15 9.88Q37.38 9.94 37.57 10.13L53.62 26.18L53.89 26.11Q54.61 25.93 54.94 25.93Q55.79 25.93 56.66 26.36L56.98 26.53L70.07 13.53Q70.26 13.35 70.49 13.28Q70.61 13.25 70.74 13.25Q70.87 13.25 70.99 13.28Q71.21 13.35 71.41 13.53Q71.74 13.87 71.74 14.2Q71.74 14.53 71.41 14.87L58.32 27.96L58.48 28.28Q58.91 29.15 58.91 30Q58.91 30.73 58.67 31.36Q58.38 32.14 57.73 32.8Q57.08 33.45 56.3 33.74Q55.66 33.97 54.94 33.97Q52.95 33.97 51.96 32.98Q50.96 31.99 50.96 30Q50.96 29.06 51.32 28.28Q51.49 27.91 51.74 27.58L52 27.23L36.23 11.46Q35.9 11.13 35.9 10.8Q35.9 10.46 36.23 10.13Q36.42 9.94 36.65 9.88Q36.77 9.84 36.9 9.84Q37.03 9.84 37.15 9.88Z" fill="#FFFFFF" fill-opacity="1.000000" fill-rule="evenodd"/>
	<path id="Vector" d="M6.32 19.3L16.04 19.3C16.82 19.3 17.5 18.62 17.5 17.85C17.5 17.07 16.82 16.39 16.04 16.39L6.32 16.39C5.54 16.39 4.86 17.07 4.86 17.85C4.86 18.62 5.54 19.3 6.32 19.3Z" fill="#F55656" fill-opacity="1.000000" fill-rule="nonzero"/>
	<path id="Vector" d="M16.04 19.3L6.32 19.3C5.54 19.3 4.86 18.62 4.86 17.85C4.86 17.07 5.54 16.39 6.32 16.39L16.04 16.39C16.82 16.39 17.5 17.07 17.5 17.85C17.5 18.62 16.82 19.3 16.04 19.3ZM16.12 18.8Q16.08 18.8 16.04 18.8L6.32 18.8Q6.28 18.8 6.24 18.8Q6.1 18.78 5.96 18.73Q5.92 18.71 5.87 18.68Q5.75 18.61 5.65 18.51Q5.55 18.41 5.48 18.28Q5.46 18.25 5.44 18.2Q5.37 18.07 5.36 17.92Q5.36 17.89 5.36 17.85Q5.36 17.81 5.36 17.77Q5.37 17.63 5.44 17.49Q5.46 17.44 5.48 17.4Q5.55 17.28 5.65 17.17Q5.75 17.07 5.87 17Q5.92 16.98 5.96 16.96Q6.1 16.9 6.24 16.89Q6.28 16.89 6.32 16.89L16.04 16.89Q16.08 16.89 16.12 16.89Q16.26 16.9 16.4 16.96Q16.44 16.98 16.48 17Q16.6 17.07 16.71 17.17Q16.81 17.28 16.88 17.4Q16.9 17.44 16.92 17.49Q16.98 17.63 17 17.77Q17 17.81 17 17.85Q17 17.89 17 17.92Q16.98 18.07 16.92 18.2Q16.9 18.25 16.88 18.28Q16.81 18.41 16.71 18.51Q16.6 18.61 16.48 18.68Q16.44 18.71 16.4 18.73Q16.26 18.78 16.12 18.8Z" fill="#FFFFFF" fill-opacity="1.000000" fill-rule="evenodd"/>
	<path id="Vector" d="M18.47 28.54L1.45 28.54C0.67 28.54 0 29.13 0 30C0 30.88 0.67 31.46 1.45 31.46L18.47 31.46C19.25 31.46 19.93 30.78 19.93 30C19.93 29.22 19.25 28.54 18.47 28.54Z" fill="#F55656" fill-opacity="1.000000" fill-rule="nonzero"/>
	<path id="Vector" d="M1.45 28.54L18.47 28.54C19.25 28.54 19.93 29.22 19.93 30C19.93 30.78 19.25 31.46 18.47 31.46L1.45 31.46C0.67 31.46 0 30.88 0 30C0 29.13 0.67 28.54 1.45 28.54ZM1.19 29.07Q1.32 29.04 1.45 29.04L18.47 29.04Q18.51 29.04 18.55 29.04Q18.69 29.06 18.83 29.12Q18.87 29.14 18.91 29.16Q19.03 29.23 19.14 29.33Q19.24 29.43 19.31 29.56Q19.33 29.6 19.35 29.64Q19.41 29.78 19.42 29.92Q19.43 29.96 19.43 30Q19.43 30.04 19.42 30.07Q19.41 30.22 19.35 30.35Q19.33 30.4 19.31 30.44Q19.24 30.57 19.14 30.67Q19.03 30.77 18.91 30.84Q18.87 30.86 18.83 30.89Q18.69 30.94 18.55 30.96Q18.51 30.96 18.47 30.96L1.45 30.96Q1.32 30.96 1.19 30.92Q1.14 30.91 1.08 30.89Q0.96 30.85 0.87 30.77Q0.82 30.74 0.78 30.7Q0.67 30.6 0.61 30.48Q0.5 30.27 0.5 30Q0.5 29.73 0.61 29.52Q0.67 29.4 0.78 29.31Q0.82 29.27 0.87 29.23Q0.96 29.16 1.08 29.11Q1.14 29.09 1.19 29.07Z" fill="#FFFFFF" fill-opacity="1.000000" fill-rule="evenodd"/>
	<path id="Vector" d="M16.04 40.7L6.32 40.7C5.54 40.7 4.86 41.38 4.86 42.16C4.86 42.93 5.54 43.61 6.32 43.61L16.04 43.61C16.82 43.61 17.5 42.93 17.5 42.16C17.5 41.38 16.82 40.7 16.04 40.7Z" fill="#F55656" fill-opacity="1.000000" fill-rule="nonzero"/>
	<path id="Vector" d="M6.32 40.7L16.04 40.7C16.82 40.7 17.5 41.38 17.5 42.16C17.5 42.93 16.82 43.61 16.04 43.61L6.32 43.61C5.54 43.61 4.86 42.93 4.86 42.16C4.86 41.38 5.54 40.7 6.32 40.7ZM6.24 41.2Q6.28 41.2 6.32 41.2L16.04 41.2Q16.08 41.2 16.12 41.2Q16.26 41.21 16.4 41.28Q16.44 41.29 16.48 41.32Q16.6 41.39 16.71 41.49Q16.81 41.59 16.88 41.71Q16.9 41.75 16.92 41.8Q16.98 41.94 17 42.08Q17 42.12 17 42.16Q17 42.2 17 42.23Q16.98 42.38 16.92 42.51Q16.9 42.56 16.88 42.6Q16.81 42.72 16.71 42.82Q16.6 42.92 16.48 43Q16.44 43.02 16.4 43.04Q16.26 43.1 16.12 43.11Q16.08 43.11 16.04 43.11L6.32 43.11Q6.28 43.11 6.24 43.11Q6.1 43.1 5.96 43.04Q5.92 43.02 5.87 43Q5.75 42.92 5.65 42.82Q5.55 42.72 5.48 42.6Q5.46 42.56 5.44 42.51Q5.37 42.38 5.36 42.23Q5.36 42.2 5.36 42.16Q5.36 42.12 5.36 42.08Q5.37 41.94 5.44 41.8Q5.46 41.75 5.48 41.71Q5.55 41.59 5.65 41.49Q5.75 41.39 5.87 41.32Q5.92 41.29 5.96 41.28Q6.1 41.21 6.24 41.2Z" fill="#FFFFFF" fill-opacity="1.000000" fill-rule="evenodd"/>
</svg>
