<svg width="66.398438" height="66.953125" viewBox="0 0 66.3984 66.9531" fill="none" xmlns="http://www.w3.org/2000/svg" xmlns:xlink="http://www.w3.org/1999/xlink">
	<desc>
			Created with Pixso.
	</desc>
	<defs/>
	<path id="Path 368" d="M47.86 18.68C47.48 18.32 46.98 18.13 46.47 18.13C45.95 18.13 45.45 18.32 45.07 18.68L28.21 35.69L21.32 28.74C20.94 28.38 20.44 28.18 19.92 28.18C19.4 28.18 18.91 28.38 18.53 28.74L14.35 32.96C14.16 33.14 14 33.35 13.9 33.59C13.8 33.83 13.74 34.1 13.74 34.35C13.74 34.62 13.8 34.89 13.9 35.12C14 35.36 14.16 35.58 14.35 35.76L26.81 48.33C27 48.52 27.21 48.67 27.45 48.77C27.69 48.87 27.94 48.92 28.21 48.92C28.46 48.92 28.72 48.87 28.96 48.77C29.2 48.67 29.42 48.52 29.6 48.33L52.04 25.71C52.23 25.53 52.37 25.31 52.47 25.07C52.57 24.82 52.62 24.57 52.62 24.3C52.62 24.04 52.57 23.78 52.47 23.54C52.37 23.3 52.23 23.08 52.04 22.89L47.86 18.68ZM51.01 24.67L28.57 47.3C28.47 47.4 28.32 47.46 28.17 47.46C28.02 47.46 27.87 47.4 27.77 47.3L15.3 34.73C15.19 34.62 15.14 34.47 15.14 34.32C15.14 34.17 15.19 34.03 15.3 33.92L19.48 29.7C19.58 29.6 19.71 29.55 19.85 29.55C19.98 29.55 20.12 29.6 20.21 29.7L28.14 37.68L46.03 19.64C46.07 19.59 46.13 19.55 46.19 19.52C46.26 19.49 46.32 19.48 46.39 19.48C46.46 19.48 46.53 19.49 46.6 19.52C46.66 19.55 46.71 19.59 46.76 19.64L50.94 23.86C51.03 23.96 51.08 24.09 51.09 24.23C51.12 24.3 51.12 24.39 51.11 24.46C51.1 24.53 51.06 24.61 51.01 24.67Z" fill="#F55656" fill-opacity="1.000000" fill-rule="nonzero"/>
	<path id="Path 368" d="M46.88 17.96Q46.68 17.92 46.47 17.92Q46.26 17.92 46.05 17.96Q45.85 18 45.64 18.09Q45.45 18.16 45.28 18.27Q45.1 18.39 44.94 18.53L44.93 18.54L28.21 35.4L21.45 28.6L21.45 28.59Q21.29 28.44 21.1 28.32Q20.93 28.21 20.75 28.14Q20.54 28.06 20.33 28.02Q20.13 27.98 19.92 27.98Q19.71 27.98 19.51 28.02Q19.3 28.06 19.1 28.14Q18.91 28.21 18.73 28.32Q18.55 28.44 18.39 28.59L18.39 28.6L14.21 32.81Q14.05 32.96 13.93 33.12Q13.8 33.31 13.71 33.51Q13.63 33.71 13.58 33.92Q13.54 34.14 13.54 34.35Q13.54 34.58 13.58 34.79Q13.63 35 13.71 35.21Q13.8 35.41 13.93 35.6Q14.05 35.76 14.21 35.91L26.67 48.47Q26.82 48.62 26.99 48.74Q27.17 48.87 27.37 48.96Q27.57 49.04 27.79 49.08Q27.99 49.12 28.21 49.12Q28.42 49.12 28.62 49.08Q28.84 49.04 29.04 48.96Q29.23 48.87 29.41 48.75Q29.58 48.64 29.74 48.47L52.18 25.85Q52.32 25.71 52.43 25.56Q52.57 25.36 52.66 25.14Q52.74 24.94 52.78 24.74Q52.83 24.53 52.83 24.3Q52.83 24.08 52.78 23.87Q52.74 23.66 52.66 23.46Q52.57 23.25 52.44 23.07Q52.33 22.9 52.18 22.75L48 18.54L48 18.53Q47.83 18.39 47.65 18.27Q47.48 18.16 47.29 18.09Q47.09 18 46.88 17.96ZM14.35 35.76L26.81 48.33C27 48.52 27.21 48.67 27.45 48.77C27.69 48.87 27.94 48.92 28.21 48.92C28.46 48.92 28.72 48.87 28.96 48.77C29.2 48.67 29.42 48.52 29.6 48.33L52.04 25.71C52.23 25.53 52.37 25.31 52.47 25.07C52.57 24.82 52.62 24.57 52.62 24.3C52.62 24.04 52.57 23.78 52.47 23.54C52.37 23.3 52.23 23.08 52.04 22.89L47.86 18.68C47.48 18.32 46.98 18.13 46.47 18.13C45.95 18.13 45.45 18.32 45.07 18.68L28.35 35.55L28.21 35.69L28.07 35.55L21.32 28.74C20.94 28.38 20.44 28.18 19.92 28.18C19.4 28.18 18.91 28.38 18.53 28.74L14.35 32.96C14.16 33.14 14 33.35 13.9 33.59C13.8 33.83 13.74 34.1 13.74 34.35C13.74 34.62 13.8 34.89 13.9 35.12C14 35.36 14.16 35.58 14.35 35.76ZM28 37.54L20.21 29.7C20.12 29.6 19.98 29.55 19.85 29.55C19.71 29.55 19.58 29.6 19.48 29.7L15.3 33.92C15.19 34.03 15.14 34.17 15.14 34.32C15.14 34.47 15.19 34.62 15.3 34.73L27.77 47.3C27.87 47.4 28.02 47.46 28.17 47.46C28.32 47.46 28.47 47.4 28.57 47.3L51.01 24.67C51.06 24.61 51.1 24.53 51.11 24.46C51.12 24.39 51.12 24.3 51.09 24.23C51.08 24.09 51.03 23.96 50.94 23.86L46.76 19.64C46.71 19.59 46.66 19.55 46.6 19.52C46.53 19.49 46.46 19.48 46.39 19.48C46.32 19.48 46.26 19.49 46.19 19.52C46.13 19.55 46.07 19.59 46.03 19.64L28.28 37.54L28.14 37.68L28 37.54ZM50.8 24L46.61 19.78L46.61 19.78Q46.59 19.75 46.56 19.73Q46.54 19.71 46.51 19.7Q46.48 19.69 46.45 19.68Q46.42 19.67 46.39 19.67Q46.36 19.67 46.33 19.68Q46.3 19.69 46.28 19.7Q46.25 19.71 46.23 19.73Q46.2 19.75 46.18 19.78L46.17 19.78L28.14 37.97L20.08 29.85Q20.03 29.8 19.97 29.78Q19.91 29.75 19.85 29.75Q19.78 29.75 19.72 29.78Q19.67 29.8 19.62 29.84L15.44 34.06Q15.39 34.11 15.36 34.17Q15.33 34.25 15.33 34.32Q15.33 34.4 15.37 34.47Q15.39 34.53 15.44 34.59L27.91 47.16Q27.96 47.21 28.03 47.24Q28.1 47.26 28.17 47.26Q28.25 47.26 28.31 47.24Q28.38 47.21 28.43 47.16L28.43 47.16L50.86 24.54Q50.88 24.52 50.89 24.5Q50.91 24.46 50.91 24.42Q50.92 24.39 50.91 24.36Q50.91 24.33 50.9 24.3L50.89 24.27L50.89 24.23Q50.89 24.16 50.86 24.1Q50.84 24.04 50.8 24Z" fill="#F55656" fill-opacity="1.000000" fill-rule="evenodd"/>
	<path id="Path 369" d="M33.19 0.2C26.67 0.2 20.29 2.15 14.86 5.81C9.43 9.46 5.2 14.66 2.71 20.74C0.21 26.82 -0.45 33.51 0.83 39.96C2.1 46.42 5.25 52.35 9.86 57C14.48 61.65 20.35 64.82 26.76 66.1C33.16 67.39 39.79 66.73 45.82 64.21C51.85 61.7 57.01 57.43 60.63 51.96C64.26 46.49 66.19 40.05 66.19 33.47C66.18 24.65 62.7 16.2 56.51 9.96C50.33 3.72 41.94 0.21 33.19 0.2ZM33.19 65.27C26.96 65.27 20.86 63.4 15.67 59.91C10.49 56.42 6.45 51.45 4.06 45.64C1.67 39.83 1.05 33.44 2.27 27.27C3.48 21.1 6.49 15.43 10.9 10.99C15.31 6.54 20.92 3.52 27.04 2.28C33.16 1.06 39.5 1.69 45.26 4.1C51.02 6.5 55.95 10.58 59.41 15.81C62.88 21.03 64.73 27.18 64.73 33.47C64.72 41.9 61.39 49.98 55.48 55.94C49.57 61.9 41.55 65.25 33.19 65.27Z" fill="#F55656" fill-opacity="1.000000" fill-rule="nonzero"/>
	<path id="Path 369" d="M19.19 3.12Q16.88 4.2 14.75 5.64Q12.82 6.94 11.1 8.49Q9.18 10.21 7.53 12.24Q6.05 14.07 4.84 16.06Q3.51 18.26 2.52 20.66Q1.6 22.89 1.02 25.21Q0.4 27.66 0.16 30.19Q-0.09 32.67 0.03 35.14Q0.16 37.58 0.63 40Q1.13 42.53 1.99 44.91Q2.8 47.14 3.91 49.25Q5.14 51.56 6.67 53.62Q8.07 55.48 9.72 57.14Q11.55 58.99 13.62 60.51Q15.49 61.89 17.54 63Q19.79 64.21 22.17 65.05Q24.39 65.84 26.72 66.3Q29.15 66.79 31.6 66.91Q34.02 67.03 36.45 66.78Q38.84 66.55 41.16 65.97Q43.57 65.37 45.9 64.4Q48.07 63.5 50.07 62.3Q52.26 61 54.26 59.35Q56.06 57.85 57.62 56.14Q59.36 54.25 60.8 52.07Q62.11 50.09 63.12 47.96Q64.22 45.66 64.96 43.19Q65.67 40.85 66.03 38.46Q66.39 35.99 66.39 33.47Q66.39 31.73 66.21 30.01Q66.05 28.46 65.74 26.92Q65.41 25.24 64.91 23.61Q64.45 22.12 63.85 20.67Q63.17 19.03 62.33 17.47Q61.62 16.16 60.8 14.92Q59.84 13.46 58.75 12.14Q57.76 10.93 56.66 9.82Q55.37 8.52 53.95 7.37Q52.82 6.46 51.6 5.64Q50.17 4.67 48.66 3.87Q47.31 3.15 45.89 2.56Q44.3 1.89 42.66 1.4Q41.2 0.96 39.7 0.66Q38.11 0.33 36.5 0.17Q34.86 0 33.19 0Q30.77 0 28.39 0.35Q25.95 0.71 23.56 1.44Q21.3 2.13 19.19 3.12ZM33.19 0.2C26.67 0.2 20.29 2.15 14.86 5.81C9.43 9.46 5.2 14.66 2.71 20.74C0.21 26.82 -0.45 33.51 0.83 39.96C2.1 46.42 5.25 52.35 9.86 57C14.48 61.65 20.35 64.82 26.76 66.1C33.16 67.39 39.79 66.73 45.82 64.21C51.85 61.7 57.01 57.43 60.63 51.96C64.26 46.49 66.19 40.05 66.19 33.47C66.18 24.65 62.7 16.2 56.51 9.96C50.33 3.72 41.94 0.21 33.19 0.2ZM33.19 65.27C26.96 65.27 20.86 63.4 15.67 59.91C10.49 56.42 6.45 51.45 4.06 45.64C1.67 39.83 1.05 33.44 2.27 27.27C3.48 21.1 6.49 15.43 10.9 10.99C15.31 6.54 20.92 3.52 27.04 2.28C33.16 1.06 39.5 1.69 45.26 4.1C51.02 6.5 55.95 10.58 59.41 15.81C62.88 21.03 64.73 27.18 64.73 33.47C64.72 41.9 61.39 49.98 55.48 55.94C49.57 61.9 41.55 65.25 33.19 65.27ZM19.98 62.12Q17.8 61.1 15.79 59.75Q13.96 58.52 12.35 57.07Q10.53 55.43 8.98 53.52Q7.57 51.8 6.44 49.92Q5.18 47.84 4.25 45.57Q3.38 43.46 2.83 41.27Q2.25 38.96 2.01 36.57Q1.78 34.22 1.9 31.89Q2.01 29.6 2.46 27.31Q2.93 24.92 3.75 22.67Q4.51 20.57 5.56 18.58Q6.71 16.4 8.17 14.45Q9.48 12.7 11.04 11.13Q12.77 9.39 14.73 7.95Q16.48 6.65 18.42 5.6Q20.55 4.46 22.79 3.67Q24.88 2.92 27.08 2.49Q29.37 2.03 31.68 1.91Q33.96 1.8 36.26 2.03Q38.52 2.25 40.69 2.79Q42.98 3.36 45.19 4.28Q47.23 5.14 49.1 6.25Q51.19 7.49 53.07 9.05Q54.77 10.45 56.24 12.07Q57.88 13.86 59.25 15.92Q60.48 17.78 61.44 19.79Q62.48 21.96 63.18 24.3Q63.84 26.51 64.18 28.77Q64.53 31.1 64.53 33.47Q64.53 35.09 64.36 36.7Q64.21 38.18 63.91 39.66Q63.6 41.23 63.14 42.75Q62.7 44.17 62.13 45.56Q61.49 47.11 60.69 48.58Q60.03 49.82 59.25 51Q58.35 52.35 57.32 53.61Q56.38 54.75 55.33 55.8Q54.13 57.02 52.8 58.1Q51.72 58.97 50.57 59.75Q49.22 60.65 47.8 61.41Q46.52 62.09 45.18 62.65Q43.68 63.28 42.13 63.75Q40.75 64.16 39.33 64.45Q37.85 64.75 36.35 64.9Q34.78 65.07 33.19 65.07Q30.91 65.07 28.67 64.74Q26.36 64.4 24.1 63.71Q21.97 63.06 19.98 62.12Z" fill="#F55656" fill-opacity="1.000000" fill-rule="evenodd"/>
</svg>
