<svg width="33.890625" height="32.335938" viewBox="0 0 33.8906 32.3359" fill="none" xmlns="http://www.w3.org/2000/svg" xmlns:xlink="http://www.w3.org/1999/xlink">
	<desc>
			Created with Pixso.
	</desc>
	<defs/>
	<path id="Star 6" d="M12.67 10.89C12.54 11.3 12.16 11.58 11.72 11.58L1 11.58C0.03 11.58 -0.38 12.82 0.41 13.39L9.09 19.7C9.44 19.95 9.58 20.4 9.45 20.82L6.14 31.01C5.83 31.93 6.89 32.7 7.67 32.14L16.35 25.82C16.7 25.57 17.18 25.57 17.53 25.82L26.21 32.14C26.99 32.7 28.05 31.93 27.75 31.01L24.43 20.82C24.3 20.4 24.44 19.95 24.79 19.7L33.47 13.39C34.26 12.82 33.85 11.58 32.89 11.58L22.16 11.58C21.73 11.58 21.34 11.3 21.21 10.89L17.89 0.69C17.59 -0.23 16.29 -0.23 15.99 0.69L12.67 10.89ZM14.29 11.42C13.93 12.53 12.89 13.28 11.72 13.28L3.15 13.28L10.08 18.32C11.03 19 11.43 20.22 11.07 21.34L8.42 29.49L15.35 24.45C16.3 23.76 17.58 23.76 18.53 24.45L25.46 29.49L22.82 21.34C22.45 20.22 22.85 19 23.8 18.32L30.73 13.28L22.16 13.28C20.99 13.28 19.95 12.53 19.59 11.42L16.94 3.26L14.29 11.42Z" fill="#F55656" fill-opacity="1.000000" fill-rule="evenodd"/>
</svg>
