<svg width="72.992188" height="60.000000" viewBox="0 0 72.9922 60" fill="none" xmlns="http://www.w3.org/2000/svg" xmlns:xlink="http://www.w3.org/1999/xlink">
	<desc>
			Created with Pixso.
	</desc>
	<defs/>
	<path id="Vector" d="M63.63 0.57C64.05 0.79 65.74 2.65 66.84 4.09C69.91 8.09 71.5 11.17 72.18 14.42C72.45 15.67 72.52 16.5 72.48 17.78C72.44 19.07 72.33 19.75 71.99 20.89C70.16 26.99 69.34 33.38 69.13 43.19C69.1 44.91 69.03 48.82 69 51.86C68.89 59.89 68.91 59.14 68.76 59.3C68.64 59.43 68.57 59.44 67.36 59.44C66.18 59.44 66.09 59.43 65.96 59.31C65.82 59.17 65.82 59.09 65.82 49.65C65.82 39.85 65.78 31.28 65.72 29.77C65.68 28.74 65.62 28.47 65.33 28.15C65.12 27.94 65.06 27.92 64.69 27.89C63.39 27.79 61.21 29.1 58.94 31.33C57.33 32.91 55.84 34.78 53.42 38.28C53.08 38.76 51.72 40.81 51.4 41.31C51.27 41.5 51.1 41.77 51.01 41.89C50.44 42.77 47.95 46.86 46.91 48.64C46.07 50.08 44.62 52.53 44.43 52.83C43.1 54.96 41.99 56.25 40.78 57.03C39.23 58.07 37.29 58.82 35.04 59.25C34.4 59.38 33.84 59.39 23.57 59.45C17.63 59.48 10.26 59.5 7.2 59.5C1.69 59.47 1.63 59.47 1.45 59.33C0.94 58.96 0.55 58.1 0.5 57.25C0.43 56.17 0.73 55.4 1.49 54.71C2.03 54.21 3 53.56 3.91 53.06C4.61 52.69 8.13 51 8.22 51C8.26 51 8.46 50.92 8.68 50.81C8.9 50.7 9.53 50.42 10.09 50.17C11.47 49.54 13.17 48.69 15.45 47.46C18.71 45.72 20.68 44.69 20.89 44.6C21.14 44.52 21.1 44.5 22.55 45.5C24.01 46.5 24.85 46.99 26.54 47.81C29.85 49.42 32.22 50.11 35.97 50.57C38.54 50.88 39.34 50.78 40.19 49.98C40.61 49.57 40.97 49 41.27 48.21C41.5 47.6 43.3 42.56 44.1 40.3C46.26 34.15 49.29 26.61 51.19 22.63C52.68 19.5 57.46 9.98 58.67 7.71C59.19 6.75 60.32 4.77 61.65 2.49C62.69 0.71 62.87 0.5 63.29 0.5C63.41 0.5 63.56 0.53 63.63 0.57ZM62.72 2.43C61.85 3.93 60.91 5.54 60.67 5.98C60.55 6.2 60.23 6.76 59.96 7.24C59.28 8.46 53.87 19.13 52.53 21.92C51.02 25.04 49.69 28.15 47.71 33.19C46.8 35.49 45.77 38.28 44.02 43.23C42.8 46.65 42.07 48.68 41.89 49.1C41.39 50.24 40.48 51.1 39.35 51.49C38.58 51.75 36.59 51.64 33.81 51.16C31.25 50.73 28.71 49.88 26.04 48.57C24.4 47.76 23.47 47.22 22.08 46.26C21.51 45.87 21.03 45.55 21.01 45.55C20.98 45.55 20.51 45.78 19.98 46.07C19.44 46.36 18.39 46.92 17.64 47.32C16.9 47.71 15.57 48.42 14.67 48.89C13.19 49.69 11.11 50.71 10.53 50.93C10.4 50.98 9.92 51.2 9.46 51.41C9 51.63 8.62 51.8 8.6 51.8C8.59 51.8 7.78 52.17 6.8 52.64C4.06 53.93 2.92 54.6 2.1 55.39C1.7 55.77 1.63 55.88 1.5 56.28C1.33 56.79 1.32 57.03 1.43 57.53C1.51 57.91 1.76 58.44 1.91 58.56C1.97 58.61 6.41 58.62 17.98 58.57C33.51 58.52 33.98 58.51 34.78 58.39C36.76 58.06 38.92 57.23 40.37 56.25C41.41 55.53 42.55 54.19 43.65 52.36C44.07 51.67 44.35 51.19 45.56 49.14C47.56 45.74 50.42 41.09 51.33 39.77C51.46 39.57 51.87 38.96 52.25 38.41C54.35 35.27 56.29 32.75 57.93 31.05C59.76 29.14 62.15 27.5 63.67 27.1C64.3 26.94 65.03 26.95 65.43 27.14C65.86 27.34 66.24 27.77 66.43 28.25C66.58 28.62 66.59 28.76 66.64 30.9C66.67 32.14 66.69 38.88 66.69 45.86L66.7 58.57L67.33 58.57L67.97 58.57L68.01 56.89C68.03 55.98 68.08 52.82 68.12 49.87C68.23 40.89 68.32 38.42 68.66 34.32C69.09 29.17 69.78 25.26 70.98 21.15C71.37 19.78 71.47 19.33 71.56 18.4C71.83 15.64 70.96 12.31 69.14 9.07C68.19 7.37 66.26 4.68 64.78 2.99C64.24 2.36 63.39 1.5 63.33 1.5C63.3 1.5 63.03 1.92 62.72 2.43Z" fill="#F55656" fill-opacity="1.000000" fill-rule="nonzero"/>
	<path id="Vector" d="M66.84 4.09C69.91 8.09 71.5 11.17 72.18 14.42C72.45 15.67 72.52 16.5 72.48 17.78C72.44 19.07 72.33 19.75 71.99 20.89C70.16 26.99 69.34 33.38 69.13 43.19C69.1 44.91 69.03 48.82 69 51.86C68.89 59.89 68.91 59.14 68.76 59.3C68.64 59.43 68.57 59.44 67.36 59.44C66.18 59.44 66.09 59.43 65.96 59.31C65.82 59.17 65.82 59.09 65.82 49.65C65.82 39.85 65.78 31.28 65.72 29.77C65.68 28.74 65.62 28.47 65.33 28.15C65.12 27.94 65.06 27.92 64.69 27.89C63.39 27.79 61.21 29.1 58.94 31.33C57.33 32.91 55.84 34.78 53.42 38.28C53.08 38.76 51.72 40.81 51.4 41.31C51.27 41.5 51.1 41.77 51.01 41.89C50.44 42.77 47.95 46.86 46.91 48.64C46.07 50.08 44.62 52.53 44.43 52.83C43.1 54.96 41.99 56.25 40.78 57.03C39.23 58.07 37.29 58.82 35.04 59.25C34.4 59.38 33.84 59.39 23.57 59.45C17.63 59.48 10.26 59.5 7.2 59.5C1.69 59.47 1.63 59.47 1.45 59.33C0.94 58.96 0.55 58.1 0.5 57.25C0.43 56.17 0.73 55.4 1.49 54.71C2.03 54.21 3 53.56 3.91 53.06C4.61 52.69 8.13 51 8.22 51C8.26 51 8.46 50.92 8.68 50.81C8.9 50.7 9.53 50.42 10.09 50.17C11.47 49.54 13.17 48.69 15.45 47.46C18.71 45.72 20.68 44.69 20.89 44.6C21.14 44.52 21.1 44.5 22.55 45.5C24.01 46.5 24.85 46.99 26.54 47.81C29.85 49.42 32.22 50.11 35.97 50.57C38.54 50.88 39.34 50.78 40.19 49.98C40.61 49.57 40.97 49 41.27 48.21C41.5 47.6 43.3 42.56 44.1 40.3C46.26 34.15 49.29 26.61 51.19 22.63C52.68 19.5 57.46 9.98 58.67 7.71C59.19 6.75 60.32 4.77 61.65 2.49C62.69 0.71 62.87 0.5 63.29 0.5C63.41 0.5 63.56 0.53 63.63 0.57C64.05 0.79 65.74 2.65 66.84 4.09ZM60.67 5.98C60.55 6.2 60.23 6.76 59.96 7.24C59.28 8.46 53.87 19.13 52.53 21.92C51.02 25.04 49.69 28.15 47.71 33.19C46.8 35.49 45.77 38.28 44.02 43.23C42.8 46.65 42.07 48.68 41.89 49.1C41.39 50.24 40.48 51.1 39.35 51.49C38.58 51.75 36.59 51.64 33.81 51.16C31.25 50.73 28.71 49.88 26.04 48.57C24.4 47.76 23.47 47.22 22.08 46.26C21.51 45.87 21.03 45.55 21.01 45.55C20.98 45.55 20.51 45.78 19.98 46.07C19.44 46.36 18.39 46.92 17.64 47.32C16.9 47.71 15.57 48.42 14.67 48.89C13.19 49.69 11.11 50.71 10.53 50.93C10.4 50.98 9.92 51.2 9.46 51.41C9 51.63 8.62 51.8 8.6 51.8C8.59 51.8 7.78 52.17 6.8 52.64C4.06 53.93 2.92 54.6 2.1 55.39C1.7 55.77 1.63 55.88 1.5 56.28C1.33 56.79 1.32 57.03 1.43 57.53C1.51 57.91 1.76 58.44 1.91 58.56C1.97 58.61 6.41 58.62 17.98 58.57C33.51 58.52 33.98 58.51 34.78 58.39C36.76 58.06 38.92 57.23 40.37 56.25C41.41 55.53 42.55 54.19 43.65 52.36C44.07 51.67 44.35 51.19 45.56 49.14C47.56 45.74 50.42 41.09 51.33 39.77C51.46 39.57 51.87 38.96 52.25 38.41C54.35 35.27 56.29 32.75 57.93 31.05C59.76 29.14 62.15 27.5 63.67 27.1C64.3 26.94 65.03 26.95 65.43 27.14C65.86 27.34 66.24 27.77 66.43 28.25C66.58 28.62 66.59 28.76 66.64 30.9C66.67 32.14 66.69 38.88 66.69 45.86L66.7 58.57L67.33 58.57L67.97 58.57L68.01 56.89C68.03 55.98 68.08 52.82 68.12 49.87C68.23 40.89 68.32 38.42 68.66 34.32C69.09 29.17 69.78 25.26 70.98 21.15C71.37 19.78 71.47 19.33 71.56 18.4C71.83 15.64 70.96 12.31 69.14 9.07C68.19 7.37 66.26 4.68 64.78 2.99C64.24 2.36 63.39 1.5 63.33 1.5C63.3 1.5 63.03 1.92 62.72 2.43C61.85 3.93 60.91 5.54 60.67 5.98Z" stroke="#F55656" stroke-opacity="1.000000" stroke-width="1.000000"/>
</svg>
